<?xml version="1.0" encoding="utf-8"?>
<!-- Generator: Adobe Illustrator 17.0.0, SVG Export Plug-In . SVG Version: 6.00 Build 0)  -->
<!DOCTYPE svg PUBLIC "-//W3C//DTD SVG 1.1//EN" "http://www.w3.org/Graphics/SVG/1.1/DTD/svg11.dtd">
<svg version="1.1" xmlns="http://www.w3.org/2000/svg" xmlns:xlink="http://www.w3.org/1999/xlink" x="0px" y="0px" width="100px"
	 height="80px" viewBox="0 0 500 500" enable-background="new 0 0 500 500" xml:space="preserve">
<g id="Objects">
	<g>
		<g>
			<path fill="#0D3B7F" d="M309.358,204.355c1.452,1.447,3.001,2.73,4.59,3.938c13.456,11.375,30.97,18.28,50.112,18.28
				c34.24,0,63.307-22.043,73.155-52.373c-0.489,23.9-9.806,47.651-28.004,65.849c-37.336,37.335-98.14,37.39-135.542,0.123
				l-101.285-99.354c-1.452-1.447-3.001-2.73-4.59-3.939c-13.456-11.375-30.97-18.28-50.112-18.28
				c-34.241,0-63.308,22.043-73.155,52.373c0.489-23.9,9.806-47.651,28.004-65.849c37.336-37.335,98.14-37.39,135.541-0.124
				L309.358,204.355z"/>
			<path fill="#0F6FC6" d="M423.305,124.351c-5.165-10.543-12.878-20.091-22.132-27.768c-36.685-30.43-94.317-25.385-127.502,7.68
				l-25.349,25.433l36.026,35.323l25.01-24.938c17.689-17.624,46.44-17.6,64.1,0.058c17.687,17.689,17.687,46.469,0,64.158
				c-5.52,5.52-12.126,9.317-19.139,11.39c3.188,0.458,6.423,0.774,9.741,0.774c26.698,0,51.915-16.24,61.998-41.137
				C433.052,158.057,431.018,140.094,423.305,124.351z"/>
			<path fill="#0F6FC6" d="M197.619,180.118l-25.234,24.974c-17.689,17.624-46.44,17.6-64.1-0.058
				c-17.687-17.689-17.687-46.469,0-64.158c5.52-5.52,12.126-9.317,19.139-11.39c-3.188-0.458-6.424-0.774-9.741-0.774
				c-36.737,0-66.625,29.12-66.625,64.912c0,25.111,17.433,47.364,37.897,60.507c37.138,23.852,88.017,17.766,119.118-13.221
				l25.784-25.399L197.619,180.118z"/>
		</g>
	</g>
	<text transform="matrix(1 0 0 1 28.2148 378.7871)" fill="#0D3B7F" font-family="'Montserrat-Bold'" font-size="110.9949">consilio</text>
</g>
<g id="Camada_2" display="none">
	<g display="inline">
		<g>
			<g>
				<path fill="#FFFFFF" d="M309.358,203.315c1.452,1.447,3.001,2.73,4.59,3.939c13.456,11.375,30.97,18.28,50.112,18.28
					c34.24,0,63.307-22.043,73.155-52.373c-0.489,23.9-9.806,47.651-28.004,65.849c-37.336,37.335-98.14,37.39-135.542,0.123
					l-101.285-99.354c-1.452-1.447-3.001-2.73-4.59-3.939c-13.456-11.375-30.97-18.28-50.112-18.28
					c-34.241,0-63.308,22.043-73.155,52.373c0.489-23.9,9.806-47.651,28.004-65.849c37.336-37.335,98.14-37.39,135.541-0.124
					L309.358,203.315z"/>
				<path fill="#FFFFFF" d="M423.305,123.311c-5.165-10.543-12.878-20.091-22.132-27.768c-36.685-30.43-94.317-25.385-127.502,7.68
					l-25.349,25.433l36.026,35.323l25.01-24.938c17.689-17.624,46.44-17.6,64.1,0.058c17.687,17.689,17.687,46.469,0,64.158
					c-5.52,5.52-12.126,9.317-19.139,11.39c3.188,0.458,6.423,0.774,9.741,0.774c26.698,0,51.915-16.24,61.998-41.137
					C433.052,157.017,431.018,139.054,423.305,123.311z"/>
				<path fill="#FFFFFF" d="M197.619,179.078l-25.234,24.974c-17.689,17.624-46.44,17.6-64.1-0.058
					c-17.687-17.689-17.687-46.469,0-64.158c5.52-5.52,12.126-9.317,19.139-11.39c-3.188-0.458-6.424-0.774-9.741-0.774
					c-36.737,0-66.626,29.12-66.626,64.912c0,25.111,17.433,47.364,37.897,60.507c37.138,23.852,88.017,17.766,119.118-13.221
					l25.784-25.399L197.619,179.078z"/>
			</g>
		</g>
		<text transform="matrix(1 0 0 1 28.2148 377.7467)" fill="#FFFFFF" font-family="'Montserrat-Bold'" font-size="110.9949">consilio</text>
	</g>
</g>
</svg>
