<?xml version="1.0" encoding="UTF-8" standalone="no"?>
<!-- Created with Inkscape (http://www.inkscape.org/) -->

<svg
   xmlns:dc="http://purl.org/dc/elements/1.1/"
   xmlns:cc="http://creativecommons.org/ns#"
   xmlns:rdf="http://www.w3.org/1999/02/22-rdf-syntax-ns#"
   xmlns:svg="http://www.w3.org/2000/svg"
   xmlns="http://www.w3.org/2000/svg"
   xmlns:sodipodi="http://sodipodi.sourceforge.net/DTD/sodipodi-0.dtd"
   xmlns:inkscape="http://www.inkscape.org/namespaces/inkscape"
   width="7mm"
   height="7mm"
   viewBox="0 0 70 70"
   version="1.1"
   id="svg4605"
   inkscape:version="0.92.3 (2405546, 2018-03-11)"
   sodipodi:docname="m-bronze.svg">
  <defs
     id="defs4599" />
  <sodipodi:namedview
     id="base"
     pagecolor="#ffffff"
     bordercolor="#666666"
     borderopacity="1.0"
     inkscape:pageopacity="0.0"
     inkscape:pageshadow="2"
     inkscape:zoom="1.979899"
     inkscape:cx="229.63135"
     inkscape:cy="158.36502"
     inkscape:document-units="mm"
     inkscape:current-layer="layer1"
     showgrid="false"
     inkscape:window-width="1680"
     inkscape:window-height="987"
     inkscape:window-x="0"
     inkscape:window-y="0"
     inkscape:window-maximized="1"
     units="mm"
     width="209mm"
     showguides="true"
     inkscape:guide-bbox="true">
    <sodipodi:guide
       position="35.010045,75.146393"
       orientation="1,0"
       id="guide4681"
       inkscape:locked="false" />
    <sodipodi:guide
       position="19.324033,35.010045"
       orientation="0,1"
       id="guide4683"
       inkscape:locked="false" />
  </sodipodi:namedview>
  <metadata
     id="metadata4602">
    <rdf:RDF>
      <cc:Work
         rdf:about="">
        <dc:format>image/svg+xml</dc:format>
        <dc:type
           rdf:resource="http://purl.org/dc/dcmitype/StillImage" />
        <dc:title></dc:title>
      </cc:Work>
    </rdf:RDF>
  </metadata>
  <g
     inkscape:label="Layer 1"
     inkscape:groupmode="layer"
     id="layer1"
     transform="translate(0,-227)">
    <path
       inkscape:connector-curvature="0"
       id="path3795"
       style="fill:#1e995c;fill-opacity:1;fill-rule:nonzero;stroke:none;stroke-width:0.03527778"
       d="m 22.027825,261.1559 v 32.06997 c 0,0.236 0.285045,0.35383 0.451909,0.18732 l 12.530313,-12.67142 12.530313,12.67142 c 0.166864,0.16651 0.451556,0.0487 0.451556,-0.18732 V 261.1559 H 22.027825" />
    <path
       inkscape:connector-curvature="0"
       id="path3797"
       style="fill:#36b375;fill-opacity:1;fill-rule:nonzero;stroke:none;stroke-width:0.03527778"
       d="m 25.093111,264.22083 h 19.833872 v 22.19008 l -9.916936,-10.02842 -9.916936,10.02877 v -22.19043" />
    <path
       inkscape:connector-curvature="0"
       id="path3799"
       style="fill:#bf7225;fill-opacity:1;fill-rule:nonzero;stroke:none;stroke-width:0.03527778"
       d="m 54.283356,248.40016 c 0.39511,-0.78916 0.295627,-1.73602 -0.255059,-2.42605 L 52.694091,244.303 c -0.342194,-0.42898 -0.517173,-0.96732 -0.492477,-1.51518 l 0.09701,-2.13642 c 0.04022,-0.88195 -0.436033,-1.70639 -1.219552,-2.11244 l -1.89865,-0.9846 c -0.487185,-0.25224 -0.866068,-0.6731 -1.066093,-1.18392 l -0.780346,-1.99108 c -0.322086,-0.82162 -1.092552,-1.38148 -1.973438,-1.43369 l -2.135012,-0.127 c -0.547511,-0.0325 -1.064684,-0.26282 -1.455207,-0.64805 l -1.522942,-1.50142 c -0.628297,-0.61983 -1.559983,-0.81774 -2.386189,-0.5073 l -2.001661,0.75248 c -0.513644,0.19297 -1.0795,0.19297 -1.593144,0 l -2.002014,-0.75248 c -0.826206,-0.31044 -1.757539,-0.11253 -2.386189,0.5073 l -1.522589,1.50142 c -0.390525,0.38523 -0.907697,0.6156 -1.455208,0.64805 l -2.135011,0.127 c -0.881239,0.0522 -1.651353,0.61207 -1.973439,1.43369 l -0.780345,1.99108 c -0.200377,0.51082 -0.579261,0.93168 -1.066094,1.18392 l -1.89865,0.9846 c -0.783872,0.40605 -1.259769,1.23049 -1.219905,2.11244 l 0.09701,2.13642 c 0.02505,0.54786 -0.149931,1.0862 -0.492125,1.51518 l -1.334206,1.67111 c -0.550686,0.69003 -0.650522,1.63689 -0.255058,2.42605 l 0.957439,1.91241 c 0.245533,0.49071 0.3048,1.05339 0.166511,1.58432 l -0.539045,2.06975 c -0.22225,0.85407 0.07197,1.75966 0.753886,2.31987 l 1.652764,1.35749 c 0.423686,0.34819 0.706614,0.83855 0.79622,1.37971 l 0.34925,2.10996 c 0.144286,0.87066 0.781402,1.57833 1.632655,1.81293 l 2.061633,0.56797 c 0.528814,0.1457 0.98672,0.47837 1.288698,0.93627 l 1.177572,1.78541 c 0.485775,0.73695 1.355725,1.1243 2.228497,0.99201 l 2.11455,-0.31961 c 0.542572,-0.0819 1.09608,0.0356 1.558219,0.33125 l 1.801636,1.15218 c 0.743656,0.47554 1.695803,0.47554 2.439459,0 l 1.801988,-1.15218 c 0.462139,-0.29562 1.015648,-0.4131 1.557867,-0.33125 l 2.114903,0.31961 c 0.872772,0.13229 1.742722,-0.25506 2.228497,-0.99201 l 1.177219,-1.78541 c 0.301977,-0.4579 0.759883,-0.79057 1.288698,-0.93627 l 2.061985,-0.56797 c 0.8509,-0.2346 1.488017,-0.94227 1.632302,-1.81293 l 0.34925,-2.10996 c 0.08961,-0.54116 0.372534,-1.03152 0.796573,-1.37971 l 1.652765,-1.35749 c 0.681919,-0.56021 0.976135,-1.4658 0.753885,-2.31987 l -0.539398,-2.06975 c -0.138287,-0.53093 -0.07902,-1.09361 0.166513,-1.58432 l 0.957792,-1.91241" />
    <path
       inkscape:connector-curvature="0"
       id="path3801"
       style="fill:#d98d42;fill-opacity:1;fill-rule:nonzero;stroke:none;stroke-width:0.03527778"
       d="m 51.181733,248.55891 c 0.331258,-0.66181 0.248002,-1.45627 -0.213784,-2.03447 l -1.11901,-1.40194 c -0.287163,-0.35948 -0.433917,-0.81103 -0.41275,-1.27035 l 0.08114,-1.79176 c 0.03352,-0.73942 -0.365829,-1.43122 -1.022702,-1.77165 l -1.592439,-0.8255 c -0.408517,-0.21167 -0.726017,-0.56444 -0.893938,-0.99272 l -0.654404,-1.67005 c -0.270227,-0.68897 -0.916162,-1.15852 -1.655233,-1.20226 l -1.790346,-0.10654 c -0.459317,-0.0272 -0.892881,-0.22049 -1.220259,-0.54328 l -1.277055,-1.25942 c -0.52705,-0.51964 -1.308453,-0.6858 -2.001308,-0.42545 l -1.67887,0.63112 c -0.430389,0.16193 -0.905228,0.16193 -1.335969,0 l -1.67887,-0.63112 c -0.692855,-0.26035 -1.473905,-0.0942 -2.000955,0.42545 l -1.277056,1.25942 c -0.327378,0.32279 -0.761294,0.51611 -1.220611,0.54328 l -1.790347,0.10654 c -0.738717,0.0437 -1.385005,0.51329 -1.65488,1.20226 l -0.654403,1.67005 c -0.167922,0.42828 -0.485422,0.78105 -0.893939,0.99272 l -1.592439,0.8255 c -0.657225,0.34043 -1.056569,1.03223 -1.022703,1.77165 l 0.08114,1.79176 c 0.02082,0.45932 -0.125942,0.91087 -0.41275,1.27035 l -1.119011,1.40194 c -0.461786,0.5782 -0.545394,1.37266 -0.213783,2.03447 l 0.802922,1.60373 c 0.206022,0.41134 0.255764,0.88335 0.1397,1.32856 l -0.451908,1.73566 c -0.18662,0.7165 0.05997,1.47567 0.632177,1.94557 l 1.385711,1.13842 c 0.3556,0.2921 0.59302,0.70308 0.668162,1.15711 l 0.292805,1.76953 c 0.121003,0.73025 0.655461,1.32362 1.369131,1.52012 l 1.728964,0.47625 c 0.443441,0.12242 0.827616,0.40146 1.08091,0.78529 l 0.987073,1.49754 c 0.407458,0.61771 1.137002,0.94262 1.869016,0.83185 l 1.773414,-0.26811 c 0.454731,-0.0688 0.919339,0.03 1.306689,0.27763 l 1.510947,0.96661 c 0.623711,0.39864 1.4224,0.39864 2.045759,0 l 1.510947,-0.96661 c 0.387703,-0.24765 0.851958,-0.34642 1.307041,-0.27763 l 1.773414,0.26811 c 0.731661,0.11077 1.461205,-0.21414 1.868664,-0.83185 l 0.987425,-1.49754 c 0.253293,-0.38383 0.637468,-0.66287 1.08091,-0.78529 l 1.728965,-0.47625 c 0.713668,-0.1965 1.248127,-0.78987 1.369131,-1.52012 l 0.292804,-1.76953 c 0.07514,-0.45403 0.312563,-0.86501 0.667808,-1.15711 l 1.386065,-1.13842 c 0.572206,-0.4699 0.818798,-1.22907 0.632177,-1.94557 l -0.45226,-1.73566 c -0.115711,-0.44521 -0.06632,-0.91722 0.1397,-1.32856 l 0.803275,-1.60373" />
    <path
       inkscape:connector-curvature="0"
       id="path3803"
       style="fill:#bf7225;fill-opacity:1;fill-rule:nonzero;stroke:none;stroke-width:0.03527778"
       d="m 33.200297,248.73318 h 1.467556 c 0.523522,0 0.912989,-0.18662 1.168047,-0.5595 0.254705,-0.37324 0.382411,-0.89465 0.382411,-1.56457 0,-0.58738 -0.127706,-1.06398 -0.382411,-1.43016 -0.255058,-0.36583 -0.620183,-0.54893 -1.095728,-0.54893 -0.385939,0 -0.718255,0.16228 -0.997303,0.48684 -0.279047,0.32455 -0.418747,0.74965 -0.418747,1.27458 h -2.841978 l -0.02081,-0.0621 c -0.03422,-1.19027 0.356658,-2.16182 1.173338,-2.91535 0.816328,-0.75353 1.823862,-1.1303 3.022953,-1.1303 1.364192,0 2.452864,0.37394 3.266017,1.12148 0.8128,0.74789 1.219552,1.8034 1.219552,3.16759 0,0.68227 -0.176036,1.31445 -0.527049,1.89653 -0.35172,0.58244 -0.833967,1.03541 -1.447095,1.35926 0.702733,0.28927 1.240367,0.73907 1.612194,1.34867 0.372181,0.60995 0.558095,1.33491 0.558095,2.17558 0,1.37124 -0.439208,2.44969 -1.317625,3.23497 -0.878417,0.78563 -2.003425,1.17828 -3.374319,1.17828 -1.206148,0 -2.242961,-0.37042 -3.111147,-1.1109 -0.868187,-0.74083 -1.284817,-1.79987 -1.250598,-3.17818 l 0.02082,-0.0621 h 2.852561 c 0,0.5789 0.151342,1.05762 0.454731,1.43651 0.303036,0.37923 0.678744,0.56867 1.126419,0.56867 0.509764,0 0.914753,-0.1912 1.214614,-0.57361 0.299508,-0.38241 0.449439,-0.89429 0.449439,-1.53494 0,-0.79939 -0.146403,-1.38324 -0.439208,-1.75189 -0.292806,-0.3683 -0.725312,-0.55281 -1.297164,-0.55281 h -1.467556 v -2.27365" />
    <path
       inkscape:connector-curvature="0"
       id="path4189"
       style="fill:#339352;fill-opacity:1;fill-rule:nonzero;stroke:none;stroke-width:0.03527778"
       d="m 44.926983,286.41091 -9.916936,-10.02842 v -7.63446 c 0.01764,7.9e-4 0.03528,7.9e-4 0.05292,7.9e-4 0.424039,0 0.847725,-0.11889 1.219553,-0.35666 l 1.801988,-1.15217 c 0.365831,-0.23424 0.789517,-0.35666 1.219553,-0.35666 0.112889,0 0.225778,0.008 0.338314,0.0254 l 2.114903,0.31962 c 0.113241,0.0173 0.226483,0.0257 0.339018,0.0257 0.753181,0 1.466498,-0.37641 1.889479,-1.01776 l 0.941211,-1.42734 v 21.60199" />
    <path
       inkscape:connector-curvature="0"
       id="path4191"
       style="fill:#b45e1a;fill-opacity:1;fill-rule:nonzero;stroke:none;stroke-width:0.03527778"
       d="m 35.062964,268.74874 c -0.01764,0 -0.03528,0 -0.05292,-8e-4 v -3.12526 c 0.01764,8e-4 0.03528,10e-4 0.05292,10e-4 0.3556,0 0.710847,-0.0998 1.022703,-0.29916 l 1.510947,-0.96661 c 0.307269,-0.19614 0.662516,-0.2988 1.023055,-0.2988 0.09455,0 0.189442,0.007 0.283986,0.0212 l 1.773414,0.26811 c 0.0949,0.0145 0.189795,0.0215 0.283986,0.0215 0.631825,0 1.230136,-0.31574 1.584678,-0.85337 l 0.987425,-1.49754 c 0.253293,-0.38382 0.637468,-0.66287 1.08091,-0.78528 l 1.728965,-0.47625 c 0.713668,-0.1965 1.248127,-0.78987 1.369131,-1.52012 l 0.292804,-1.76954 c 0.07514,-0.45402 0.312563,-0.86501 0.667808,-1.15711 l 1.386065,-1.13841 c 0.572206,-0.4699 0.818798,-1.22908 0.632177,-1.94557 l -0.45226,-1.73567 c -0.115711,-0.4452 -0.06632,-0.91722 0.1397,-1.32856 l 0.803275,-1.60373 c 0.331258,-0.66181 0.248002,-1.45626 -0.213784,-2.03447 l -1.11901,-1.40193 c -0.287163,-0.35948 -0.433917,-0.81104 -0.41275,-1.27036 l 0.08114,-1.79175 c 0.03352,-0.73943 -0.365829,-1.43122 -1.022702,-1.77165 l -1.592439,-0.8255 c -0.408517,-0.21167 -0.726017,-0.56445 -0.893938,-0.99272 l -0.654404,-1.67005 c -0.270227,-0.68898 -0.916162,-1.15852 -1.655233,-1.20227 l -1.790346,-0.10654 c -0.459317,-0.0272 -0.892881,-0.22048 -1.220259,-0.54327 l -1.277055,-1.25942 c -0.36195,-0.35666 -0.843139,-0.54681 -1.3335,-0.54681 -0.224367,0 -0.450145,0.0399 -0.667808,0.12136 l -1.67887,0.63121 c -0.215194,0.0808 -0.441678,0.12136 -0.667808,0.12136 -0.01764,0 -0.03528,-3.5e-4 -0.05292,-7.2e-4 v -2.95662 c 0.01764,3.5e-4 0.03528,3.5e-4 0.05292,3.5e-4 0.25788,0 0.515408,-0.0437 0.762,-0.13193 0.01129,-0.004 0.02293,-0.008 0.03457,-0.0127 l 2.001661,-0.75248 c 0.259291,-0.0973 0.528813,-0.14495 0.796219,-0.14495 0.566561,3.5e-4 1.122891,0.21272 1.549047,0.61277 0.01376,0.0131 0.02752,0.0261 0.04092,0.0395 v 0 l 1.522942,1.50142 c 0.340078,0.33584 0.776463,0.55351 1.245305,0.62583 0.06914,0.0106 0.139348,0.018 0.209902,0.0222 l 2.135012,0.127 c 0.154869,0.009 0.306211,0.0339 0.452613,0.0734 0.685448,0.1838 1.255537,0.68298 1.520825,1.36031 l 0.780346,1.99108 c 0.197202,0.50271 0.567266,0.91863 1.043162,1.17193 0.0078,0.004 0.01516,0.008 0.02294,0.012 l 1.89865,0.9846 c 0.753182,0.39017 1.222023,1.16664 1.222023,2.00942 0,0.0339 -7.93e-4,0.0684 -0.0024,0.10301 l -0.09701,2.13643 c -0.0013,0.0342 -0.0021,0.0684 -0.0021,0.10266 0,0.51223 0.173567,1.01035 0.494594,1.41252 v 0 l 1.334206,1.67111 c 0.550686,0.69003 0.650169,1.63688 0.255059,2.42605 l -0.957792,1.91241 c -0.0046,0.01 -0.0095,0.0194 -0.0141,0.0289 -0.07902,0.16369 -0.137584,0.33514 -0.175329,0.51083 v 3.4e-4 c -0.0013,0.006 -0.0024,0.012 -0.0039,0.0183 0,7.2e-4 -2.65e-4,0.001 -2.65e-4,0.002 -2.65e-4,0.001 -7.94e-4,0.003 -0.0011,0.005 -0.06773,0.33478 -0.05927,0.68333 0.02822,1.01917 l 0.539398,2.06975 c 0.04939,0.19015 0.07338,0.38276 0.07303,0.57362 -0.0011,0.66675 -0.296685,1.31092 -0.82691,1.74625 l -1.652765,1.35748 c -0.42404,0.3482 -0.706966,0.83856 -0.796573,1.37972 l -0.34925,2.10996 c -0.144285,0.87066 -0.781402,1.57833 -1.632302,1.81293 l -0.521758,0.14358 -1.540227,0.42439 c -0.528815,0.1457 -0.986721,0.47837 -1.288698,0.93627 l -0.236008,0.35807 -0.941211,1.42734 c -0.422981,0.64135 -1.136298,1.01776 -1.889479,1.01776 -0.112535,0 -0.225777,-0.008 -0.339019,-0.0257 l -2.114902,-0.31962 c -0.112536,-0.0169 -0.225425,-0.0254 -0.338314,-0.0254 -0.430036,0 -0.853722,0.12242 -1.219553,0.35666 l -1.802176,1.15218 c -0.371828,0.23777 -0.795514,0.35666 -1.219553,0.35666" />
    <path
       inkscape:connector-curvature="0"
       id="path4193"
       style="fill:#cc742e;fill-opacity:1;fill-rule:nonzero;stroke:none;stroke-width:0.03527778"
       d="m 35.062964,265.62383 c -0.01764,0 -0.03528,-2.7e-4 -0.05292,-10e-4 v -7.86624 c 1.207911,-0.0642 2.211917,-0.45367 3.011664,-1.16875 0.878417,-0.78528 1.317625,-1.86373 1.317625,-3.23497 0,-0.84067 -0.185914,-1.56563 -0.558095,-2.17558 -0.371827,-0.6096 -0.909461,-1.0594 -1.612194,-1.34867 0.613128,-0.32385 1.095375,-0.77682 1.447095,-1.35926 0.351013,-0.58208 0.527049,-1.21426 0.527049,-1.89653 0,-1.36419 -0.406752,-2.4197 -1.219552,-3.16759 -0.741892,-0.68227 -1.713089,-1.05304 -2.913592,-1.11266 v -8.27723 c 0.01764,3.5e-4 0.03528,7.2e-4 0.05292,7.2e-4 0.22613,0 0.452614,-0.0406 0.667808,-0.12136 l 1.67887,-0.63112 c 0.217663,-0.0815 0.443441,-0.12135 0.667808,-0.12135 0.490361,0 0.97155,0.19014 1.3335,0.5468 l 1.277055,1.25942 c 0.327378,0.32279 0.760942,0.51611 1.220259,0.54328 l 1.790346,0.10654 c 0.739071,0.0437 1.385006,0.51329 1.655233,1.20226 l 0.654404,1.67005 c 0.167921,0.42827 0.485421,0.78105 0.893938,0.99272 l 1.592439,0.8255 c 0.656873,0.34043 1.056217,1.03223 1.022702,1.77165 l -0.08114,1.79176 c -0.02117,0.45931 0.125587,0.91087 0.41275,1.27035 l 1.11901,1.40194 c 0.461786,0.5782 0.545042,1.37266 0.213784,2.03447 l -0.803275,1.60373 c -0.206023,0.41134 -0.255411,0.88335 -0.1397,1.32856 l 0.45226,1.73566 c 0.186621,0.7165 -0.05997,1.47567 -0.632177,1.94557 l -1.386065,1.13842 c -0.355245,0.2921 -0.592666,0.70308 -0.667808,1.15711 l -0.292804,1.76953 c -0.121004,0.73025 -0.655463,1.32362 -1.369131,1.52012 l -1.728965,0.47625 c -0.443442,0.12241 -0.827617,0.40146 -1.08091,0.78528 l -0.987425,1.49754 c -0.354542,0.53764 -0.952853,0.85337 -1.584678,0.85337 -0.09419,0 -0.189089,-0.007 -0.283986,-0.0215 l -1.773414,-0.26812 c -0.09454,-0.0141 -0.189441,-0.0212 -0.283986,-0.0212 -0.360539,0 -0.715786,0.10266 -1.023055,0.2988 l -1.510947,0.96661 c -0.311856,0.19932 -0.667103,0.29916 -1.022703,0.29916 m -0.05292,-10.22315 v -4.3695 c 0.405342,0.0614 0.723547,0.23742 0.95497,0.52846 0.292805,0.36865 0.439208,0.9525 0.439208,1.75189 0,0.64065 -0.149931,1.15253 -0.449439,1.53494 -0.244828,0.31221 -0.559858,0.49706 -0.944739,0.55421 m 0,-6.69748 v -4.05166 c 0.346075,0.0582 0.621242,0.23389 0.825853,0.52741 0.254705,0.36618 0.382411,0.84278 0.382411,1.43016 0,0.66992 -0.127706,1.19133 -0.382411,1.56457 -0.196145,0.28645 -0.471311,0.46319 -0.825853,0.52952" />
    <path
       inkscape:connector-curvature="0"
       id="path4195"
       style="fill:#b45e1a;fill-opacity:1;fill-rule:nonzero;stroke:none;stroke-width:0.03527778"
       d="m 35.010047,257.75653 v -2.35585 c 0.384881,-0.0572 0.699911,-0.242 0.944739,-0.55421 0.299508,-0.38241 0.449439,-0.89429 0.449439,-1.53494 0,-0.79939 -0.146403,-1.38324 -0.439208,-1.75189 -0.231423,-0.29104 -0.549628,-0.46708 -0.95497,-0.52846 v -2.32798 c 0.354542,-0.0663 0.629708,-0.24307 0.825853,-0.52952 0.254705,-0.37324 0.382411,-0.89465 0.382411,-1.56457 0,-0.58738 -0.127706,-1.06398 -0.382411,-1.43016 -0.204611,-0.29352 -0.479778,-0.4692 -0.825853,-0.52741 v -2.35902 c 1.200503,0.0596 2.1717,0.43039 2.913592,1.11266 0.8128,0.74789 1.219552,1.8034 1.219552,3.16759 0,0.68227 -0.176036,1.31445 -0.527049,1.89653 -0.35172,0.58244 -0.833967,1.03541 -1.447095,1.35926 0.702733,0.28927 1.240367,0.73907 1.612194,1.34867 0.372181,0.60995 0.558095,1.33491 0.558095,2.17558 0,1.37124 -0.439208,2.44969 -1.317625,3.23497 -0.799747,0.71508 -1.803753,1.10455 -3.011664,1.16875" />
  </g>
</svg>
