<?xml version="1.0" encoding="UTF-8" standalone="no"?>
<!-- Created with Inkscape (http://www.inkscape.org/) -->

<svg
   xmlns:dc="http://purl.org/dc/elements/1.1/"
   xmlns:cc="http://creativecommons.org/ns#"
   xmlns:rdf="http://www.w3.org/1999/02/22-rdf-syntax-ns#"
   xmlns:svg="http://www.w3.org/2000/svg"
   xmlns="http://www.w3.org/2000/svg"
   xmlns:sodipodi="http://sodipodi.sourceforge.net/DTD/sodipodi-0.dtd"
   xmlns:inkscape="http://www.inkscape.org/namespaces/inkscape"
   width="7mm"
   height="7mm"
   viewBox="0 0 70 70"
   version="1.1"
   id="svg4605"
   inkscape:version="0.92.3 (2405546, 2018-03-11)"
   sodipodi:docname="m-ouro.svg">
  <defs
     id="defs4599" />
  <sodipodi:namedview
     id="base"
     pagecolor="#ffffff"
     bordercolor="#666666"
     borderopacity="1.0"
     inkscape:pageopacity="0.0"
     inkscape:pageshadow="2"
     inkscape:zoom="1.4"
     inkscape:cx="307.39395"
     inkscape:cy="95.079979"
     inkscape:document-units="mm"
     inkscape:current-layer="layer1"
     showgrid="false"
     inkscape:window-width="1680"
     inkscape:window-height="987"
     inkscape:window-x="0"
     inkscape:window-y="0"
     inkscape:window-maximized="1"
     units="mm"
     width="209mm"
     showguides="true"
     inkscape:guide-bbox="true">
    <sodipodi:guide
       position="35.010045,75.146393"
       orientation="1,0"
       id="guide4681"
       inkscape:locked="false" />
    <sodipodi:guide
       position="19.324033,35.010045"
       orientation="0,1"
       id="guide4683"
       inkscape:locked="false" />
  </sodipodi:namedview>
  <metadata
     id="metadata4602">
    <rdf:RDF>
      <cc:Work
         rdf:about="">
        <dc:format>image/svg+xml</dc:format>
        <dc:type
           rdf:resource="http://purl.org/dc/dcmitype/StillImage" />
        <dc:title></dc:title>
      </cc:Work>
    </rdf:RDF>
  </metadata>
  <g
     inkscape:label="Layer 1"
     inkscape:groupmode="layer"
     id="layer1"
     transform="translate(0,-227)">
    <g
       id="g4577"
       transform="matrix(0.03527778,0,0,-0.03527778,-14.520057,494.90938)">
      <path
         d="m 1034.36,6617.44 v -909.07 c 0,-6.69 8.08,-10.03 12.8,-5.31 l 355.19,359.19 355.19,-359.19 c 4.73,-4.72 12.81,-1.38 12.81,5.31 v 909.07 h -735.99"
         style="fill:#ff5c4d;fill-opacity:1;fill-rule:nonzero;stroke:none"
         id="path3775"
         inkscape:connector-curvature="0" />
      <path
         d="m 1121.24,6530.56 h 562.22 v -629.01 l -281.11,284.27 -281.11,-284.28 v 629.02"
         style="fill:#ff7366;fill-opacity:1;fill-rule:nonzero;stroke:none"
         id="path3777"
         inkscape:connector-curvature="0" />
      <path
         d="m 1948.68,6979.02 c 11.21,22.37 8.38,49.21 -7.22,68.77 l -37.83,47.37 c -9.7,12.16 -14.66,27.42 -13.95,42.95 l 2.75,60.56 c 1.13,25 -12.36,48.37 -34.57,59.88 l -53.83,27.91 c -13.8,7.15 -24.54,19.08 -30.21,33.56 l -22.12,56.44 c -9.13,23.29 -30.97,39.16 -55.95,40.64 l -60.51,3.6 c -15.53,0.92 -30.18,7.45 -41.26,18.37 l -43.16,42.56 c -17.82,17.57 -44.22,23.18 -67.64,14.38 l -56.75,-21.33 c -14.55,-5.47 -30.6,-5.47 -45.15,0 l -56.75,21.33 c -23.42,8.8 -49.82,3.19 -67.64,-14.38 l -43.17,-42.56 c -11.07,-10.92 -25.73,-17.45 -41.25,-18.37 l -60.52,-3.6 c -24.97,-1.48 -46.81,-17.35 -55.94,-40.64 l -22.12,-56.44 c -5.67,-14.48 -16.41,-26.41 -30.21,-33.56 l -53.828,-27.91 c -22.215,-11.51 -35.711,-34.88 -34.575,-59.88 l 2.75,-60.56 c 0.703,-15.53 -4.254,-30.79 -13.953,-42.95 l -37.824,-47.37 c -15.609,-19.56 -18.43,-46.4 -7.227,-68.77 l 27.145,-54.21 c 6.961,-13.91 8.641,-29.86 4.719,-44.91 l -15.278,-58.67 c -6.308,-24.21 2.032,-49.88 21.368,-65.76 l 46.843,-38.48 c 12.016,-9.87 20.039,-23.77 22.578,-39.11 l 9.903,-59.81 c 4.086,-24.68 22.148,-44.74 46.269,-51.39 l 58.45,-16.1 c 14.99,-4.13 27.97,-13.56 36.53,-26.54 l 33.37,-50.61 c 13.78,-20.89 38.44,-31.87 63.17,-28.12 l 59.95,9.06 c 15.37,2.32 31.07,-1.01 44.17,-9.39 l 51.07,-32.66 c 21.08,-13.48 48.07,-13.48 69.15,0 l 51.07,32.66 c 13.1,8.38 28.8,11.71 44.17,9.39 l 59.94,-9.06 c 24.74,-3.75 49.4,7.23 63.17,28.12 l 33.38,50.61 c 8.56,12.98 21.54,22.41 36.53,26.54 l 58.45,16.1 c 24.12,6.65 42.18,26.71 46.27,51.39 l 9.9,59.81 c 2.54,15.34 10.56,29.24 22.58,39.11 l 46.84,38.48 c 19.34,15.88 27.68,41.55 21.37,65.76 l -15.28,58.67 c -3.92,15.05 -2.24,31 4.72,44.91 l 27.14,54.21"
         style="fill:#ffd400;fill-opacity:1;fill-rule:nonzero;stroke:none"
         id="path3779"
         inkscape:connector-curvature="0" />
      <path
         d="m 1860.76,6974.52 c 9.4,18.76 7.03,41.28 -6.06,57.67 l -31.72,39.74 c -8.13,10.19 -12.29,22.99 -11.7,36.01 l 2.31,50.79 c 0.95,20.96 -10.37,40.57 -29,50.22 l -45.13,23.4 c -11.58,6 -20.59,16 -25.35,28.14 l -18.55,47.34 c -7.65,19.53 -25.97,32.84 -46.91,34.08 l -50.75,3.02 c -13.02,0.77 -25.31,6.25 -34.6,15.4 l -36.2,35.7 c -14.94,14.73 -37.08,19.44 -56.72,12.06 l -47.59,-17.89 c -12.21,-4.59 -25.66,-4.59 -37.87,0 l -47.59,17.89 c -19.64,7.38 -41.78,2.67 -56.72,-12.06 l -36.2,-35.7 c -9.29,-9.15 -21.58,-14.63 -34.6,-15.4 l -50.75,-3.02 c -20.95,-1.24 -39.26,-14.55 -46.92,-34.08 l -18.55,-47.34 c -4.76,-12.14 -13.76,-22.14 -25.34,-28.14 l -45.13,-23.4 c -18.63,-9.65 -29.952,-29.26 -28.999,-50.22 l 2.305,-50.79 c 0.594,-13.02 -3.567,-25.82 -11.703,-36.01 l -31.715,-39.74 c -13.094,-16.39 -15.457,-38.91 -6.063,-57.67 l 22.766,-45.46 c 5.836,-11.66 7.242,-25.04 3.957,-37.66 l -12.816,-49.2 c -5.289,-20.31 1.707,-41.83 17.921,-55.15 l 39.287,-32.27 c 10.07,-8.28 16.8,-19.93 18.93,-32.8 l 8.31,-50.16 c 3.42,-20.7 18.57,-37.52 38.8,-43.09 l 49.02,-13.5 c 12.57,-3.47 23.45,-11.38 30.63,-22.26 l 27.99,-42.45 c 11.55,-17.51 32.23,-26.72 52.98,-23.58 l 50.26,7.6 c 12.9,1.95 26.06,-0.85 37.05,-7.87 l 42.83,-27.4 c 17.68,-11.3 40.31,-11.3 57.99,0 l 42.83,27.4 c 10.99,7.02 24.15,9.82 37.04,7.87 l 50.27,-7.6 c 20.75,-3.14 41.43,6.07 52.98,23.58 l 27.99,42.45 c 7.17,10.88 18.06,18.79 30.63,22.26 l 49.02,13.5 c 20.23,5.57 35.37,22.39 38.8,43.09 l 8.3,50.16 c 2.13,12.87 8.86,24.52 18.94,32.8 l 39.29,32.27 c 16.21,13.32 23.2,34.84 17.92,55.15 l -12.82,49.2 c -3.29,12.62 -1.88,26 3.96,37.66 l 22.76,45.46"
         style="fill:#fff64d;fill-opacity:1;fill-rule:nonzero;stroke:none"
         id="path3781"
         inkscape:connector-curvature="0" />
      <path
         d="m 1451.25,6724.67 h -83.2 v 339.55 l -79.11,-1.76 v 60.06 l 162.31,29.01 v -426.86"
         style="fill:#ffd400;fill-opacity:1;fill-rule:nonzero;stroke:none"
         id="path3783"
         inkscape:connector-curvature="0" />
      <path
         d="m 1762.79,5700.85 c -1.84,0 -3.72,0.69 -5.25,2.21 l -355.19,359.19 355.19,-359.19 c 1.53,-1.52 3.41,-2.21 5.25,-2.21 v 0 m 7.56,861.76 v 0 l 14.79,4.07 c 24.12,6.65 42.18,26.71 46.27,51.39 l 9.9,59.81 c 2.54,15.34 10.56,29.24 22.58,39.11 l 46.84,38.48 c 15.03,12.34 23.42,30.6 23.45,49.5 -0.03,-18.9 -8.42,-37.16 -23.45,-49.5 l -46.84,-38.48 c -12.02,-9.87 -20.04,-23.77 -22.58,-39.11 l -9.9,-59.81 c -4.09,-24.68 -22.15,-44.74 -46.27,-51.39 l -14.79,-4.07 m 144.62,328.08 c -0.93,11.1 1.04,22.31 5.79,32.5 -4.75,-10.19 -6.72,-21.4 -5.79,-32.5 m 40.51,117.02 c 0,14.29 -4.76,28.47 -14.02,40.08 l -37.83,47.37 37.83,-47.37 c 9.26,-11.61 14.02,-25.79 14.02,-40.08 m -156.78,281.84 c -11.23,7.27 -19.96,17.91 -24.88,30.47 l -22.12,56.44 c -7.53,19.2 -23.69,33.35 -43.12,38.56 19.43,-5.21 35.59,-19.36 43.12,-38.56 l 22.12,-56.44 c 4.92,-12.56 13.65,-23.2 24.88,-30.47 m -169.42,131.78 c -13.28,2.05 -25.65,8.22 -35.3,17.74 l -43.16,42.56 43.16,-42.56 c 9.65,-9.52 22.02,-15.69 35.3,-17.74 m -225.43,49.25 c -0.5,0 -1,0 -1.5,0.01 v 0.12 c 0.54,-0.01 1.09,-0.02 1.63,-0.02 7.61,0 15.21,1.27 22.45,3.99 -7.28,-2.73 -14.93,-4.1 -22.58,-4.1 m 79.33,25.43 c 7.35,2.76 14.99,4.11 22.57,4.11 v 0 c -7.58,0 -15.22,-1.35 -22.57,-4.11"
         style="fill:#ffe566;fill-opacity:1;fill-rule:nonzero;stroke:none"
         id="path4161"
         inkscape:connector-curvature="0" />
      <path
         d="m 1762.79,5700.85 c -1.84,0 -3.72,0.69 -5.25,2.21 l -355.19,359.19 v 123.57 0 l 281.11,-284.27 v 612.34 l 6.7,10.15 c 8.56,12.98 21.54,22.41 36.53,26.54 l 43.66,12.03 v 0 0 -854.24 c 0,-4.52 -3.7,-7.52 -7.56,-7.52"
         style="fill:#ff521f;fill-opacity:1;fill-rule:nonzero;stroke:none"
         id="path4163"
         inkscape:connector-curvature="0" />
      <path
         d="m 1683.46,5901.55 -281.11,284.27 v 216.41 c 0.5,-0.02 1,-0.02 1.5,-0.02 12.02,0 24.04,3.37 34.58,10.11 l 51.07,32.66 c 10.38,6.64 22.39,10.11 34.58,10.11 3.19,0 6.4,-0.24 9.59,-0.72 l 59.94,-9.06 c 3.22,-0.49 6.43,-0.73 9.61,-0.73 21.35,0 41.58,10.67 53.56,28.85 l 26.68,40.46 v -612.34"
         style="fill:#ff6829;fill-opacity:1;fill-rule:nonzero;stroke:none"
         id="path4165"
         inkscape:connector-curvature="0" />
      <path
         d="m 1403.85,6402.21 c -0.5,0 -1,0 -1.5,0.02 v 88.59 c 0.5,-0.02 1,-0.03 1.5,-0.03 10.08,0 20.16,2.83 29,8.48 l 42.83,27.4 c 8.7,5.56 18.77,8.47 28.99,8.47 2.68,0 5.37,-0.2 8.05,-0.6 l 50.27,-7.6 c 2.7,-0.41 5.39,-0.61 8.06,-0.61 17.9,0 34.87,8.95 44.92,24.19 l 27.99,42.45 c 7.17,10.88 18.06,18.79 30.63,22.26 l 49.02,13.5 c 20.23,5.57 35.37,22.39 38.8,43.09 l 8.3,50.16 c 2.13,12.87 8.86,24.52 18.94,32.8 l 39.29,32.27 c 16.21,13.32 23.2,34.84 17.92,55.15 l -12.82,49.2 c -3.29,12.62 -1.88,26 3.96,37.66 l 22.76,45.46 c 9.4,18.76 7.03,41.28 -6.06,57.67 l -31.72,39.74 c -8.13,10.19 -12.29,22.99 -11.7,36.01 l 2.31,50.79 c 0.95,20.96 -10.37,40.57 -29,50.22 l -45.13,23.4 c -11.58,6 -20.59,16 -25.35,28.14 l -18.55,47.34 c -7.65,19.53 -25.97,32.84 -46.91,34.08 l -50.75,3.02 c -13.02,0.77 -25.31,6.25 -34.6,15.4 l -36.2,35.7 c -10.25,10.11 -23.9,15.5 -37.8,15.5 -6.35,0 -12.76,-1.13 -18.92,-3.44 l -47.59,-17.89 c -6.11,-2.29 -12.52,-3.44 -18.94,-3.44 -0.5,0 -1,0.01 -1.5,0.02 v 83.81 c 0.5,-0.01 1,-0.01 1.5,-0.01 7.65,0 15.3,1.37 22.58,4.1 v 0 l 56.75,21.33 v 0 c 7.35,2.76 14.99,4.11 22.57,4.11 16.57,-0.01 32.84,-6.43 45.07,-18.49 v 0 l 43.16,-42.56 c 9.65,-9.52 22.02,-15.69 35.3,-17.74 1.97,-0.3 3.96,-0.51 5.96,-0.63 l 60.51,-3.6 c 4.39,-0.26 8.69,-0.96 12.83,-2.08 19.43,-5.21 35.59,-19.36 43.12,-38.56 l 22.12,-56.44 c 4.92,-12.56 13.65,-23.2 24.88,-30.47 1.72,-1.11 3.5,-2.14 5.33,-3.09 l 53.83,-27.91 c 21.34,-11.06 34.64,-33.07 34.64,-56.96 0,-0.96 -0.03,-1.94 -0.07,-2.92 l -2.75,-60.56 c -0.04,-0.97 -0.07,-1.94 -0.07,-2.91 0,-14.52 4.93,-28.64 14.02,-40.04 v 0 l 37.83,-47.37 c 9.26,-11.61 14.02,-25.79 14.02,-40.08 -0.01,-6.96 -1.14,-13.94 -3.43,-20.66 -0.93,-2.73 -2.05,-5.41 -3.37,-8.03 l -27.14,-54.21 c -0.14,-0.27 -0.27,-0.55 -0.4,-0.82 -0.13,-0.27 -0.26,-0.53 -0.38,-0.8 -4.75,-10.19 -6.72,-21.4 -5.79,-32.5 0.31,-3.62 0.92,-7.23 1.85,-10.79 l 15.28,-58.67 c 1.4,-5.39 2.08,-10.85 2.08,-16.26 -0.03,-18.9 -8.42,-37.16 -23.45,-49.5 l -46.84,-38.48 c -12.02,-9.87 -20.04,-23.77 -22.58,-39.11 l -9.9,-59.81 c -4.09,-24.68 -22.15,-44.74 -46.27,-51.39 l -14.79,-4.07 -43.66,-12.03 c -14.99,-4.13 -27.97,-13.56 -36.53,-26.54 l -6.7,-10.15 -26.68,-40.46 c -11.98,-18.18 -32.21,-28.85 -53.56,-28.85 -3.18,0 -6.39,0.24 -9.61,0.73 l -59.94,9.06 c -3.19,0.48 -6.4,0.72 -9.59,0.72 -12.19,0 -24.2,-3.47 -34.58,-10.11 l -51.07,-32.66 c -10.54,-6.74 -22.56,-10.11 -34.58,-10.11"
         style="fill:#ffbe00;fill-opacity:1;fill-rule:nonzero;stroke:none"
         id="path4167"
         inkscape:connector-curvature="0" />
      <path
         d="m 1403.85,6490.79 c -0.5,0 -1,0.01 -1.5,0.03 v 233.85 h 48.9 v 426.86 l -48.9,-8.74 v 243.99 c 0.5,-0.01 1,-0.02 1.5,-0.02 6.42,0 12.83,1.15 18.94,3.44 l 47.59,17.89 c 6.16,2.31 12.57,3.44 18.92,3.44 13.9,0 27.55,-5.39 37.8,-15.5 l 36.2,-35.7 c 9.29,-9.15 21.58,-14.63 34.6,-15.4 l 50.75,-3.02 c 20.94,-1.24 39.26,-14.55 46.91,-34.08 l 18.55,-47.34 c 4.76,-12.14 13.77,-22.14 25.35,-28.14 l 45.13,-23.4 c 18.63,-9.65 29.95,-29.26 29,-50.22 l -2.31,-50.79 c -0.59,-13.02 3.57,-25.82 11.7,-36.01 l 31.72,-39.74 c 13.09,-16.39 15.46,-38.91 6.06,-57.67 L 1838,6929.06 c -5.84,-11.66 -7.25,-25.04 -3.96,-37.66 l 12.82,-49.2 c 5.28,-20.31 -1.71,-41.83 -17.92,-55.15 l -39.29,-32.27 c -10.08,-8.28 -16.81,-19.93 -18.94,-32.8 l -8.3,-50.16 c -3.43,-20.7 -18.57,-37.52 -38.8,-43.09 l -49.02,-13.5 c -12.57,-3.47 -23.46,-11.38 -30.63,-22.26 l -27.99,-42.45 c -10.05,-15.24 -27.02,-24.19 -44.92,-24.19 -2.67,0 -5.36,0.2 -8.06,0.61 l -50.27,7.6 c -2.68,0.4 -5.37,0.6 -8.05,0.6 -10.22,0 -20.29,-2.91 -28.99,-8.47 l -42.83,-27.4 c -8.84,-5.65 -18.92,-8.48 -29,-8.48"
         style="fill:#ffdd1f;fill-opacity:1;fill-rule:nonzero;stroke:none"
         id="path4169"
         inkscape:connector-curvature="0" />
      <path
         d="m 1451.25,6724.67 h -48.9 v 418.12 l 48.9,8.74 v -426.86"
         style="fill:#ffbe00;fill-opacity:1;fill-rule:nonzero;stroke:none"
         id="path4171"
         inkscape:connector-curvature="0" />
    </g>
  </g>
</svg>
