<?xml version="1.0" encoding="UTF-8" standalone="no"?>
<!-- Created with Inkscape (http://www.inkscape.org/) -->

<svg
   xmlns:dc="http://purl.org/dc/elements/1.1/"
   xmlns:cc="http://creativecommons.org/ns#"
   xmlns:rdf="http://www.w3.org/1999/02/22-rdf-syntax-ns#"
   xmlns:svg="http://www.w3.org/2000/svg"
   xmlns="http://www.w3.org/2000/svg"
   xmlns:sodipodi="http://sodipodi.sourceforge.net/DTD/sodipodi-0.dtd"
   xmlns:inkscape="http://www.inkscape.org/namespaces/inkscape"
   width="7mm"
   height="7mm"
   viewBox="0 0 70 70"
   version="1.1"
   id="svg4605"
   inkscape:version="0.92.3 (2405546, 2018-03-11)"
   sodipodi:docname="m-prata.svg">
  <defs
     id="defs4599" />
  <sodipodi:namedview
     id="base"
     pagecolor="#ffffff"
     bordercolor="#666666"
     borderopacity="1.0"
     inkscape:pageopacity="0.0"
     inkscape:pageshadow="2"
     inkscape:zoom="1.979899"
     inkscape:cx="229.63135"
     inkscape:cy="158.36502"
     inkscape:document-units="mm"
     inkscape:current-layer="layer1"
     showgrid="false"
     inkscape:window-width="1680"
     inkscape:window-height="987"
     inkscape:window-x="0"
     inkscape:window-y="0"
     inkscape:window-maximized="1"
     units="mm"
     width="209mm"
     showguides="true"
     inkscape:guide-bbox="true">
    <sodipodi:guide
       position="35.010045,75.146393"
       orientation="1,0"
       id="guide4681"
       inkscape:locked="false" />
    <sodipodi:guide
       position="19.324033,35.010045"
       orientation="0,1"
       id="guide4683"
       inkscape:locked="false" />
  </sodipodi:namedview>
  <metadata
     id="metadata4602">
    <rdf:RDF>
      <cc:Work
         rdf:about="">
        <dc:format>image/svg+xml</dc:format>
        <dc:type
           rdf:resource="http://purl.org/dc/dcmitype/StillImage" />
        <dc:title></dc:title>
      </cc:Work>
    </rdf:RDF>
  </metadata>
  <g
     inkscape:label="Layer 1"
     inkscape:groupmode="layer"
     id="layer1"
     transform="translate(0,-227)">
    <path
       inkscape:connector-curvature="0"
       id="path3785"
       style="fill:#3081f2;fill-opacity:1;fill-rule:nonzero;stroke:none;stroke-width:0.03527778"
       d="m 22.192215,261.55247 v 32.06997 c 0,0.236 0.285045,0.35383 0.451909,0.18732 l 12.530315,-12.67142 12.530313,12.67142 c 0.166865,0.16651 0.451908,0.0487 0.451908,-0.18732 V 261.55247 H 22.192215" />
    <path
       inkscape:connector-curvature="0"
       id="path3787"
       style="fill:#4d97ff;fill-opacity:1;fill-rule:nonzero;stroke:none;stroke-width:0.03527778"
       d="m 25.257503,264.6174 h 19.833872 v 22.19008 l -9.916936,-10.02842 -9.916936,10.02877 V 264.6174" />
    <path
       inkscape:connector-curvature="0"
       id="path3789"
       style="fill:#8c8c8c;fill-opacity:1;fill-rule:nonzero;stroke:none;stroke-width:0.03527778"
       d="m 54.447745,248.79673 c 0.395113,-0.78916 0.29563,-1.73602 -0.255058,-2.42605 l -1.334204,-1.67111 c -0.342196,-0.42898 -0.517173,-0.96732 -0.492125,-1.51518 l 0.09701,-2.13642 c 0.03987,-0.88195 -0.436033,-1.70639 -1.219903,-2.11244 l -1.89865,-0.9846 c -0.487188,-0.25224 -0.865717,-0.6731 -1.066097,-1.18392 l -0.780343,-1.99108 c -0.322085,-0.82162 -1.0922,-1.38148 -1.97344,-1.43369 l -2.13501,-0.127 c -0.54751,-0.0325 -1.064684,-0.26282 -1.455208,-0.64805 l -1.522942,-1.50142 c -0.628297,-0.61983 -1.55963,-0.81774 -2.385836,-0.5073 l -2.002014,0.75248 c -0.513644,0.19297 -1.079499,0.19297 -1.593144,0 l -2.002014,-0.75248 c -0.826205,-0.31044 -1.757539,-0.11253 -2.385836,0.5073 l -1.522941,1.50142 c -0.390525,0.38523 -0.907698,0.6156 -1.455209,0.64805 l -2.13501,0.127 c -0.88124,0.0522 -1.651354,0.61207 -1.973441,1.43369 l -0.780344,1.99108 c -0.200378,0.51082 -0.578909,0.93168 -1.066096,1.18392 l -1.89865,0.9846 c -0.78352,0.40605 -1.25977,1.23049 -1.219907,2.11244 l 0.09701,2.13642 c 0.02505,0.54786 -0.14993,1.0862 -0.492125,1.51518 l -1.334206,1.67111 c -0.550687,0.69003 -0.65017,1.63689 -0.255059,2.42605 l 0.957793,1.91241 c 0.245533,0.49071 0.3048,1.05339 0.166511,1.58432 l -0.539398,2.06975 c -0.22225,0.85407 0.07197,1.75966 0.753887,2.31987 l 1.652765,1.35749 c 0.423686,0.34819 0.706967,0.83855 0.796572,1.37971 l 0.349251,2.10996 c 0.144286,0.87066 0.781403,1.57833 1.632303,1.81293 l 2.061987,0.56797 c 0.528815,0.1457 0.986721,0.47837 1.288698,0.93627 l 1.177219,1.78541 c 0.485775,0.73695 1.355725,1.1243 2.228497,0.99201 l 2.11455,-0.31961 c 0.542573,-0.0819 1.096081,0.0356 1.55822,0.33125 l 1.801989,1.15218 c 0.743655,0.47554 1.695802,0.47554 2.439105,0 l 1.801989,-1.15218 c 0.462139,-0.29562 1.015647,-0.4131 1.558219,-0.33125 l 2.11455,0.31961 c 0.872774,0.13229 1.742724,-0.25506 2.228499,-0.99201 l 1.177218,-1.78541 c 0.301977,-0.4579 0.760235,-0.79057 1.28905,-0.93627 l 2.061634,-0.56797 c 0.851251,-0.2346 1.488368,-0.94227 1.632301,-1.81293 l 0.349602,-2.10996 c 0.08926,-0.54116 0.372534,-1.03152 0.796222,-1.37971 l 1.652762,-1.35749 c 0.681921,-0.56021 0.976138,-1.4658 0.753888,-2.31987 l -0.539045,-2.06975 c -0.138287,-0.53093 -0.07937,-1.09361 0.166513,-1.58432 l 0.957437,-1.91241" />
    <path
       inkscape:connector-curvature="0"
       id="path3791"
       style="fill:#cccccc;fill-opacity:1;fill-rule:nonzero;stroke:none;stroke-width:0.03527778"
       d="m 51.346125,248.95548 c 0.331258,-0.66181 0.248002,-1.45627 -0.213783,-2.03447 l -1.119013,-1.40194 c -0.286809,-0.35948 -0.433562,-0.81103 -0.41275,-1.27035 l 0.08114,-1.79176 c 0.03351,-0.73942 -0.365476,-1.43122 -1.022701,-1.77165 l -1.59244,-0.8255 c -0.408165,-0.21167 -0.726017,-0.56444 -0.89394,-0.99272 l -0.654402,-1.67005 c -0.270227,-0.68897 -0.916165,-1.15852 -1.654879,-1.20226 l -1.790701,-0.10654 c -0.458964,-0.0272 -0.89288,-0.22049 -1.220258,-0.54328 l -1.277056,-1.25942 c -0.52705,-0.51964 -1.3081,-0.6858 -2.000955,-0.42545 l -1.67887,0.63112 c -0.430741,0.16193 -0.90558,0.16193 -1.335969,0 l -1.678869,-0.63112 c -0.693209,-0.26035 -1.474259,-0.0942 -2.001309,0.42545 l -1.277055,1.25942 c -0.327378,0.32279 -0.761295,0.51611 -1.220259,0.54328 l -1.790347,0.10654 c -0.739069,0.0437 -1.385005,0.51329 -1.655233,1.20226 l -0.654403,1.67005 c -0.167922,0.42828 -0.485422,0.78105 -0.893939,0.99272 l -1.59244,0.8255 c -0.657225,0.34043 -1.056217,1.03223 -1.022703,1.77165 l 0.08114,1.79176 c 0.02117,0.45932 -0.125589,0.91087 -0.412751,1.27035 l -1.119011,1.40194 c -0.461786,0.5782 -0.545042,1.37266 -0.213784,2.03447 l 0.802923,1.60373 c 0.206022,0.41134 0.255764,0.88335 0.1397,1.32856 l -0.451908,1.73566 c -0.18662,0.7165 0.06033,1.47567 0.632178,1.94557 l 1.385711,1.13842 c 0.355601,0.2921 0.59302,0.70308 0.668162,1.15711 l 0.292806,1.76953 c 0.121002,0.73025 0.655461,1.32362 1.369131,1.52012 l 1.728965,0.47625 c 0.443441,0.12242 0.827616,0.40146 1.08091,0.78529 l 0.987425,1.49754 c 0.407458,0.61771 1.137003,0.94262 1.868664,0.83185 l 1.773414,-0.26811 c 0.455083,-0.0688 0.919339,0.03 1.306689,0.27763 l 1.5113,0.96661 c 0.623358,0.39864 1.422047,0.39864 2.045758,0 l 1.510947,-0.96661 c 0.38735,-0.24765 0.851958,-0.34642 1.306689,-0.27763 l 1.773414,0.26811 c 0.732014,0.11077 1.461206,-0.21414 1.869016,-0.83185 l 0.987073,-1.49754 c 0.253293,-0.38383 0.637468,-0.66287 1.08091,-0.78529 l 1.729317,-0.47625 c 0.713316,-0.1965 1.247775,-0.78987 1.368777,-1.52012 l 0.292806,-1.76953 c 0.07514,-0.45403 0.31256,-0.86501 0.66816,-1.15711 l 1.385713,-1.13842 c 0.572204,-0.4699 0.818796,-1.22907 0.632177,-1.94557 l -0.451908,-1.73566 c -0.116065,-0.44521 -0.06632,-0.91722 0.1397,-1.32856 l 0.802922,-1.60373" />
    <path
       inkscape:connector-curvature="0"
       id="path3793"
       style="fill:#8c8c8c;fill-opacity:1;fill-rule:nonzero;stroke:none;stroke-width:0.03527778"
       d="m 39.647308,257.95519 h -8.988072 v -2.01718 l 4.149372,-5.25709 c 0.549981,-0.78176 0.945797,-1.46227 1.186039,-2.04188 0.240242,-0.57926 0.360539,-1.10631 0.360539,-1.5808 0,-0.64946 -0.125236,-1.17299 -0.376061,-1.57057 -0.250825,-0.39793 -0.613481,-0.59725 -1.087261,-0.59725 -0.487539,0 -0.862189,0.24165 -1.123245,0.72425 -0.261408,0.4826 -0.392289,1.11584 -0.392289,1.89936 h -2.894894 l -0.02082,-0.0522 c -0.02787,-1.37972 0.362303,-2.54847 1.170517,-3.50661 0.808214,-0.95779 1.895122,-1.43722 3.260725,-1.43722 1.393825,0 2.480733,0.40428 3.261077,1.2125 0.780345,0.80821 1.170517,1.90923 1.170517,3.3027 0,0.93381 -0.218017,1.79776 -0.652992,2.59186 -0.436033,0.79446 -1.16205,1.83268 -2.179461,3.11468 l -1.985786,2.84303 h 5.142089 v 2.37243" />
    <path
       inkscape:connector-curvature="0"
       id="path4173"
       style="fill:#cccccc;fill-opacity:1;fill-rule:nonzero;stroke:none;stroke-width:0.03527778"
       d="m 47.88996,293.88773 v 0 c 0.136173,0 0.2667,-0.10584 0.2667,-0.26529 v -30.13569 l 0.521407,-0.14358 c 0.851251,-0.2346 1.488368,-0.94227 1.632301,-1.81293 l 0.349602,-2.10996 c 0.08926,-0.54116 0.372534,-1.03152 0.796222,-1.37971 l 1.652762,-1.35749 c 0.530225,-0.43533 0.825854,-1.0795 0.826913,-1.74625 -0.0011,0.66675 -0.296688,1.31092 -0.826913,1.74625 l -1.652762,1.35749 c -0.423688,0.34819 -0.706967,0.83855 -0.796222,1.37971 l -0.349602,2.10996 c -0.143933,0.87066 -0.78105,1.57833 -1.632301,1.81293 l -0.521407,0.14358 v 30.13569 c 0,0.15945 -0.130527,0.26529 -0.2667,0.26529 m 5.433835,-41.59427 c -0.04939,-0.18873 -0.07338,-0.38135 -0.07338,-0.57361 0,0.19226 0.024,0.38488 0.07338,0.57361 m 1.363488,-4.50885 c 2.65e-4,-0.50412 -0.167571,-1.00436 -0.494596,-1.41393 l -1.334204,-1.67111 1.334204,1.67111 c 0.327025,0.40957 0.494948,0.90981 0.494596,1.41393 m -2.229908,-7.03368 c -0.06597,-0.76624 -0.518938,-1.45556 -1.213908,-1.8154 l -1.89865,-0.9846 1.89865,0.9846 c 0.69497,0.35984 1.147937,1.04916 1.213908,1.8154 m -3.30059,-2.90901 c -0.396523,-0.25647 -0.704498,-0.63182 -0.878065,-1.07491 l -0.305858,-0.78035 0.305858,0.78035 c 0.173567,0.44309 0.481542,0.81844 0.878065,1.07491 m -2.156531,-3.83187 c -0.0013,-0.001 -0.0028,-0.003 -0.0042,-0.004 0.0013,0.001 0.0028,0.003 0.0042,0.004 m -0.0071,-0.007 c -2.64e-4,0 -7.93e-4,-3.4e-4 -0.0011,-0.001 2.65e-4,7.2e-4 7.94e-4,0.001 0.0011,0.001 m -0.0088,-0.009 c -0.277284,-0.27446 -0.622652,-0.47484 -1.004359,-0.57749 0.381707,0.10265 0.727075,0.30303 1.004359,0.57749 M 43.18,233.19325 c -0.468842,-0.0723 -0.904875,-0.28999 -1.245306,-0.62583 l -1.522942,-1.50142 1.522942,1.50142 c 0.340431,0.33584 0.776464,0.55351 1.245306,0.62583 m -7.95267,-1.73743 c -0.01764,0 -0.03528,0 -0.05292,-3.6e-4 v -0.004 c 0.01905,3.5e-4 0.0381,7.1e-4 0.0575,7.1e-4 0.268464,0 0.536575,-0.0448 0.791986,-0.14076 -0.256822,0.0963 -0.526697,0.14464 -0.796572,0.14464" />
    <path
       inkscape:connector-curvature="0"
       id="path4175"
       style="fill:#2667c2;fill-opacity:1;fill-rule:nonzero;stroke:none;stroke-width:0.03527778"
       d="m 47.88996,293.88773 c -0.06491,0 -0.131233,-0.0243 -0.185208,-0.078 L 35.174439,281.13834 v -4.35928 l 9.916936,10.02842 v -21.602 l 0.236008,-0.35807 c 0.301977,-0.4579 0.760235,-0.79057 1.28905,-0.93627 l 1.540227,-0.42439 v 30.13569 c 0,0.15945 -0.130527,0.26529 -0.2667,0.26529" />
    <path
       inkscape:connector-curvature="0"
       id="path4177"
       style="fill:#3e79cc;fill-opacity:1;fill-rule:nonzero;stroke:none;stroke-width:0.03527778"
       d="m 45.091375,286.80748 -9.916936,-10.02842 v -7.63446 c 0.01764,7.9e-4 0.03528,7.9e-4 0.05292,7.9e-4 0.424039,0 0.848078,-0.11889 1.219553,-0.35666 l 1.801989,-1.15217 c 0.366183,-0.23424 0.789869,-0.35666 1.219553,-0.35666 0.112888,0 0.225777,0.008 0.338666,0.0254 l 2.11455,0.31962 c 0.113242,0.0173 0.226484,0.0257 0.339019,0.0257 0.753182,0 1.46685,-0.37641 1.88948,-1.01776 l 0.94121,-1.42734 v 21.60199" />
    <path
       inkscape:connector-curvature="0"
       id="path4179"
       style="fill:#707070;fill-opacity:1;fill-rule:nonzero;stroke:none;stroke-width:0.03527778"
       d="m 35.227355,269.14531 c -0.01764,0 -0.03528,0 -0.05292,-8e-4 v -3.12526 c 0.01764,8e-4 0.03528,10e-4 0.05292,10e-4 0.3556,0 0.7112,-0.0998 1.023056,-0.29916 l 1.510947,-0.96661 c 0.306917,-0.19614 0.662164,-0.2988 1.022703,-0.2988 0.09454,0 0.189441,0.007 0.283986,0.0212 l 1.773414,0.26811 c 0.0949,0.0145 0.189794,0.0215 0.284339,0.0215 0.631472,0 1.229783,-0.31574 1.584677,-0.85337 l 0.987073,-1.49754 c 0.253293,-0.38382 0.637468,-0.66287 1.08091,-0.78528 l 1.729317,-0.47625 c 0.713316,-0.1965 1.247775,-0.78987 1.368777,-1.52012 l 0.292806,-1.76954 c 0.07514,-0.45402 0.31256,-0.86501 0.66816,-1.15711 l 1.385713,-1.13841 c 0.572204,-0.4699 0.818796,-1.22908 0.632177,-1.94557 l -0.451908,-1.73567 c -0.116065,-0.4452 -0.06632,-0.91722 0.1397,-1.32856 l 0.802923,-1.60373 c 0.331258,-0.66181 0.248002,-1.45626 -0.213783,-2.03447 l -1.119013,-1.40193 c -0.286809,-0.35948 -0.433562,-0.81104 -0.41275,-1.27036 l 0.08114,-1.79175 c 0.03351,-0.73943 -0.365476,-1.43122 -1.022701,-1.77165 l -1.59244,-0.8255 c -0.408165,-0.21167 -0.726017,-0.56445 -0.89394,-0.99272 l -0.654402,-1.67005 c -0.270227,-0.68898 -0.916165,-1.15852 -1.654879,-1.20227 l -1.790701,-0.10654 c -0.458964,-0.0272 -0.89288,-0.22048 -1.220258,-0.54327 l -1.277056,-1.25942 c -0.361597,-0.35666 -0.843139,-0.54681 -1.3335,-0.54681 -0.224366,0 -0.450144,0.0399 -0.667455,0.12136 l -1.67887,0.63121 c -0.215547,0.0808 -0.441677,0.12136 -0.668161,0.12136 -0.01764,0 -0.03528,-3.5e-4 -0.05292,-7.2e-4 v -2.95662 c 0.01764,3.5e-4 0.03528,3.5e-4 0.05292,3.5e-4 0.269875,0 0.53975,-0.0483 0.796572,-0.14463 v 0 l 2.002014,-0.75248 c 0.259291,-0.0973 0.52846,-0.14495 0.795866,-0.14495 0.584905,0 1.158875,0.22684 1.589969,0.65229 v 0 l 1.522942,1.50142 c 0.340431,0.33584 0.776464,0.55351 1.245306,0.62583 0.0695,0.0106 0.139348,0.018 0.209902,0.0222 l 2.13501,0.127 c 0.15593,0.009 0.30833,0.0342 0.455083,0.0741 0.381707,0.10266 0.727075,0.30304 1.004359,0.5775 0.0024,0.003 0.0049,0.005 0.0078,0.008 2.65e-4,7.2e-4 7.94e-4,0.001 0.0011,0.001 0.0011,10e-4 0.0021,0.002 0.0028,0.003 0.0013,0.001 0.0028,0.003 0.0042,0.004 0.212725,0.21484 0.383823,0.47378 0.498123,0.76588 l 0.474485,1.21073 0.305858,0.78035 c 0.173567,0.44309 0.481542,0.81844 0.878065,1.07491 0.06068,0.0392 0.123473,0.0755 0.188032,0.10901 v 0 l 1.89865,0.9846 c 0.69497,0.35983 1.147937,1.04916 1.213908,1.8154 0.0053,0.0642 0.0081,0.12876 0.0081,0.19402 0,0.0339 -7.94e-4,0.0684 -0.0021,0.10301 l -0.09701,2.13643 c -0.0019,0.0342 -0.0024,0.0684 -0.0024,0.10266 0,0.51223 0.173921,1.01035 0.494596,1.41252 v 0 l 1.334204,1.67111 c 0.327025,0.40957 0.494948,0.90981 0.494596,1.41393 0,0.24553 -0.03986,0.49177 -0.121005,0.72884 -0.03281,0.0963 -0.07232,0.19085 -0.118533,0.28328 l -0.957437,1.91241 c -0.0049,0.01 -0.0095,0.0194 -0.01447,0.0289 -0.148873,0.30833 -0.224719,0.64418 -0.225425,0.98179 0,0.19226 0.024,0.38488 0.07338,0.57361 v 0 l 0.539046,2.06975 c 0.04939,0.19015 0.07338,0.38276 0.07303,0.57362 -0.0011,0.66675 -0.296688,1.31092 -0.826913,1.74625 l -1.652762,1.35749 c -0.423688,0.34819 -0.706967,0.83855 -0.796221,1.37971 l -0.349602,2.10996 c -0.143933,0.87066 -0.78105,1.57833 -1.632302,1.81293 l -0.521406,0.14358 -1.540227,0.42439 c -0.528815,0.1457 -0.987073,0.47837 -1.28905,0.93627 l -0.236009,0.35807 -0.94121,1.42734 c -0.422629,0.64135 -1.136298,1.01776 -1.889479,1.01776 -0.112536,0 -0.225777,-0.008 -0.339019,-0.0257 l -2.11455,-0.31962 c -0.112889,-0.0169 -0.225778,-0.0254 -0.338667,-0.0254 -0.429683,0 -0.853369,0.12242 -1.219552,0.35666 l -1.802082,1.15217 c -0.371475,0.23777 -0.795514,0.35666 -1.219553,0.35666" />
    <path
       inkscape:connector-curvature="0"
       id="path4181"
       style="fill:#a3a3a3;fill-opacity:1;fill-rule:nonzero;stroke:none;stroke-width:0.03527778"
       d="m 35.227355,266.0204 c -0.01764,0 -0.03528,-2.7e-4 -0.05292,-10e-4 v -8.06415 h 4.472869 v -2.37243 h -4.472869 v -0.95814 l 1.316566,-1.88489 c 1.017411,-1.282 1.743428,-2.32022 2.179461,-3.11468 0.434975,-0.7941 0.652992,-1.65805 0.652992,-2.59186 0,-1.39347 -0.390172,-2.49449 -1.170517,-3.3027 -0.726722,-0.75248 -1.719439,-1.155 -2.978502,-1.20685 v -8.11178 c 0.01764,3.5e-4 0.03528,7.2e-4 0.05292,7.2e-4 0.226484,0 0.452614,-0.0406 0.668161,-0.12136 l 1.67887,-0.63112 c 0.217311,-0.0815 0.443089,-0.12135 0.667455,-0.12135 0.490361,0 0.971903,0.19014 1.3335,0.5468 l 1.277056,1.25942 c 0.327378,0.32279 0.761294,0.51611 1.220258,0.54328 l 1.790701,0.10654 c 0.738714,0.0437 1.384652,0.51329 1.654879,1.20226 l 0.654402,1.67005 c 0.167923,0.42827 0.485775,0.78105 0.89394,0.99272 l 1.59244,0.8255 c 0.657225,0.34043 1.056216,1.03223 1.022701,1.77165 l -0.08114,1.79176 c -0.02082,0.45931 0.125941,0.91087 0.41275,1.27035 l 1.119013,1.40194 c 0.461785,0.5782 0.545041,1.37266 0.213783,2.03447 l -0.802923,1.60373 c -0.206023,0.41134 -0.255765,0.88335 -0.1397,1.32856 l 0.451908,1.73566 c 0.186619,0.7165 -0.05997,1.47567 -0.632177,1.94557 l -1.385713,1.13842 c -0.3556,0.2921 -0.593018,0.70308 -0.66816,1.15711 l -0.292806,1.76953 c -0.121002,0.73025 -0.655461,1.32362 -1.368777,1.52012 l -1.729317,0.47625 c -0.443442,0.12241 -0.827617,0.40146 -1.08091,0.78528 l -0.987073,1.49754 c -0.354894,0.53764 -0.953205,0.85337 -1.584677,0.85337 -0.09455,0 -0.189442,-0.007 -0.284339,-0.0215 l -1.773414,-0.26812 c -0.09455,-0.0141 -0.189442,-0.0212 -0.283986,-0.0212 -0.360539,0 -0.715786,0.10266 -1.022703,0.2988 l -1.510947,0.96661 c -0.311856,0.19932 -0.667456,0.29916 -1.023056,0.29916 m -0.05292,-15.87959 v -5.22428 c 0.337961,0.066 0.606072,0.25611 0.804686,0.57114 0.250825,0.39758 0.376061,0.92111 0.376061,1.57057 0,0.47449 -0.120297,1.00154 -0.360539,1.5808 -0.183092,0.44203 -0.456847,0.94262 -0.820208,1.50177" />
    <path
       inkscape:connector-curvature="0"
       id="path4183"
       style="fill:#707070;fill-opacity:1;fill-rule:nonzero;stroke:none;stroke-width:0.03527778"
       d="m 39.647308,257.95519 h -4.472869 v -2.37243 h 4.472869 v 2.37243 m -4.472869,-3.33057 v -4.48381 c 0.363361,-0.55915 0.637116,-1.05974 0.820208,-1.50177 0.240242,-0.57926 0.360539,-1.10631 0.360539,-1.5808 0,-0.64946 -0.125236,-1.17299 -0.376061,-1.57057 -0.198614,-0.31503 -0.466725,-0.50517 -0.804686,-0.57114 v -2.39289 c 1.259063,0.0519 2.25178,0.45437 2.978502,1.20685 0.780345,0.80821 1.170517,1.90923 1.170517,3.3027 0,0.93381 -0.218017,1.79776 -0.652992,2.59186 -0.436033,0.79446 -1.16205,1.83268 -2.179461,3.11468 l -1.316566,1.88489" />
  </g>
</svg>
